<svg width="21" height="20" viewBox="0 0 21 20" fill="none" xmlns="http://www.w3.org/2000/svg">
<path fill-rule="evenodd" clip-rule="evenodd" d="M14.6356 14.9972C13.3151 16.1214 11.6034 16.7998 9.73329 16.7998C5.55434 16.7998 2.16663 13.4121 2.16663 9.23317C2.16663 5.05422 5.55434 1.6665 9.73329 1.6665C13.9122 1.6665 17.3 5.05422 17.3 9.23317C17.3 11.092 16.6297 12.7943 15.5177 14.1115L19.1497 17.7435L18.2658 18.6274L14.6356 14.9972ZM16.05 9.23317C16.05 12.7218 13.2219 15.5498 9.73329 15.5498C6.24469 15.5498 3.41663 12.7218 3.41663 9.23317C3.41663 5.74457 6.24469 2.9165 9.73329 2.9165C13.2219 2.9165 16.05 5.74457 16.05 9.23317Z" fill="black" fill-opacity="0.7"/>
</svg>
